<?xml version="1.0" encoding="UTF-8"?>
<svg xmlns="http://www.w3.org/2000/svg" xmlns:xlink="http://www.w3.org/1999/xlink" width="24px" height="24px" viewBox="0 0 24 24" version="1.1">
<g id="surface1">
<path fill="currentColor"
stroke="none" d="M 26.072917 3.994792 C 25.734375 4.010417 25.416667 4.109375 25.135417 4.21875 C 24.848958 4.333333 23.494792 4.901042 21.432292 5.765625 C 19.375 6.635417 16.703125 7.760417 14.052083 8.875 C 8.755208 11.104167 3.546875 13.302083 3.546875 13.302083 L 3.609375 13.276042 C 3.609375 13.276042 3.25 13.395833 2.875 13.651042 C 2.682292 13.776042 2.473958 13.947917 2.291667 14.21875 C 2.104167 14.489583 1.958333 14.901042 2.010417 15.328125 C 2.104167 16.052083 2.572917 16.484375 2.90625 16.723958 C 3.244792 16.963542 3.572917 17.078125 3.572917 17.078125 L 3.578125 17.078125 L 8.463542 18.723958 C 8.682292 19.427083 9.947917 23.598958 10.255208 24.557292 C 10.432292 25.135417 10.609375 25.494792 10.828125 25.765625 C 10.932292 25.90625 11.057292 26.026042 11.208333 26.119792 C 11.265625 26.151042 11.328125 26.182292 11.390625 26.203125 C 11.411458 26.213542 11.432292 26.21875 11.453125 26.223958 L 11.401042 26.213542 C 11.416667 26.213542 11.432292 26.229167 11.442708 26.229167 C 11.479167 26.244792 11.510417 26.244792 11.557292 26.255208 C 12.333333 26.489583 12.953125 26.010417 12.953125 26.010417 L 12.989583 25.979167 L 15.869792 23.354167 L 20.703125 27.0625 L 20.8125 27.109375 C 21.822917 27.552083 22.838542 27.307292 23.380208 26.869792 C 23.921875 26.432292 24.135417 25.875 24.135417 25.875 L 24.166667 25.786458 L 27.901042 6.65625 C 28.010417 6.182292 28.036458 5.744792 27.916667 5.3125 C 27.802083 4.885417 27.5 4.479167 27.135417 4.265625 C 26.770833 4.046875 26.40625 3.979167 26.072917 3.994792 Z M 25.96875 6.046875 C 25.963542 6.109375 25.979167 6.104167 25.947917 6.223958 L 25.947917 6.234375 L 22.25 25.166667 C 22.234375 25.192708 22.208333 25.25 22.135417 25.307292 C 22.057292 25.369792 21.994792 25.411458 21.666667 25.28125 L 15.760417 20.75 L 12.1875 24.005208 L 12.9375 19.213542 C 12.9375 19.213542 22.197917 10.588542 22.59375 10.213542 C 22.994792 9.84375 22.859375 9.765625 22.859375 9.765625 C 22.885417 9.3125 22.260417 9.635417 22.260417 9.635417 L 10.083333 17.177083 L 10.078125 17.15625 L 4.244792 15.192708 L 4.244792 15.1875 C 4.239583 15.1875 4.229167 15.182292 4.229167 15.182292 C 4.229167 15.182292 4.260417 15.171875 4.260417 15.171875 L 4.291667 15.15625 L 4.322917 15.145833 C 4.322917 15.145833 9.53125 12.947917 14.828125 10.71875 C 17.479167 9.604167 20.151042 8.479167 22.208333 7.609375 C 24.260417 6.744792 25.78125 6.114583 25.869792 6.078125 C 25.947917 6.046875 25.911458 6.046875 25.96875 6.046875 Z M 25.96875 6.046875 " transform="matrix(0.75,0,0,0.75,0,0)"/>
</g>
</svg>
