<svg xmlns="http://www.w3.org/2000/svg" viewBox="0 14.789999961853027 25.459999084472656 30.279998779296875" data-asc="0.89013671875" width="25.459999084472656" height="30.279998779296875"><defs/><g fill="#bcbdbf"><g transform="translate(0, 0)"><path d="M0 22.71Q0 22.14 1.23 21.46Q2.47 20.78 2.82 20.28Q3.17 19.78 4.06 17.29Q4.96 14.79 5.94 14.79Q6.93 14.79 7.28 15.58Q7.42 15.94 7.64 17.57Q7.86 19.19 8.45 19.86Q9.03 20.53 11.25 21.04Q13.48 21.56 13.48 22.45Q13.48 23.34 11.06 23.72Q8.64 24.10 8.23 24.83Q7.45 26.17 7.45 32.41Q7.45 38.65 8.12 40.20Q8.79 41.75 10.18 41.75Q10.96 41.75 12.32 41.32Q13.67 40.89 13.94 40.89Q14.75 40.89 14.75 41.85Q14.75 43.02 12.16 44.17Q10.67 44.82 9.02 44.82Q7.37 44.82 6.02 44.07Q4.66 43.31 3.96 41.97Q2.91 39.99 2.91 33.59L2.91 31.57L2.86 29.61Q2.86 26.51 2.38 25.37Q1.90 24.22 1.29 23.83Q0 23.02 0 22.71ZM22.31 45.07L22.12 45.07Q20.68 45.07 19.85 44.08Q19.02 43.09 19.02 41.89L19.04 41.77Q19.04 40.89 19.81 39.82Q20.58 38.75 21.97 38.75L22.61 38.75Q23.54 38.75 24.50 39.55Q25.46 40.36 25.46 41.60L25.46 42.11Q25.46 43.38 24.45 44.23Q23.44 45.07 22.31 45.07Z"/></g></g></svg>